# xmcd
#
# Track frame offsets: 
#        150
#        17158
#        31436
#        49113
#        63530
#        79531
#        100188
#        115076
#        131667
#        146695
#        167666
#        187324
#
# Disc length: 2773 seconds
#
# Revision: 0
# Processed by: cddbd v1.5.2PL0 Copyright (c) Steve Scherf et al.
# Submitted via: ExactAudioCopy v0.99pb5
#
DISCID=a60ad30c
DTITLE=Truth and Salvage Co. - Truth and Salvage Co.
DYEAR=2010
DGENRE=Folk/Rock
TTITLE0=Hail Hail
TTITLE1=Call Back
TTITLE2=Welcome to L.A.
TTITLE3=Heart Like A Wheel
TTITLE4=See Her
TTITLE5=Old Piano
TTITLE6=101
TTITLE7=Jump The Ship
TTITLE8=She Really Does It For Me
TTITLE9=Rise Up
TTITLE10=Brothers, Sons and Daughters
TTITLE11=Pure Mountain Angel
EXTD=
EXTT0=
EXTT1=
EXTT2=
EXTT3=
EXTT4=
EXTT5=
EXTT6=
EXTT7=
EXTT8=
EXTT9=
EXTT10=
EXTT11=
PLAYORDER=
